<svg width="120" height="100" viewBox="0 0 120 100" fill="none" xmlns="http://www.w3.org/2000/svg">
<rect width="120" height="100" rx="8" fill="#007AFF"/>
<path d="M108.75 81.25H11.25C10.2554 81.25 9.30161 80.9208 8.59835 80.3347C7.89509 79.7487 7.5 78.9538 7.5 78.125V25C7.5 24.1712 7.89509 23.3763 8.59835 22.7903C9.30161 22.2042 10.2554 21.875 11.25 21.875H35.475L41.8875 13.9062C42.2272 13.4764 42.6891 13.1231 43.2321 12.8777C43.775 12.6324 44.3823 12.5027 45 12.5H75C75.6177 12.5027 76.225 12.6324 76.7679 12.8777C77.3109 13.1231 77.7728 13.4764 78.1125 13.9062L84.525 21.875H108.75C109.745 21.875 110.698 22.2042 111.402 22.7903C112.105 23.3763 112.5 24.1712 112.5 25V78.125C112.5 78.9538 112.105 79.7487 111.402 80.3347C110.698 80.9208 109.745 81.25 108.75 81.25ZM15 75H105V28.125H82.5C81.8823 28.1223 81.275 27.9926 80.7321 27.7473C80.1891 27.5019 79.7272 27.1486 79.3875 26.7188L72.975 18.75H47.025L40.6125 26.7188C40.2728 27.1486 39.8109 27.5019 39.2679 27.7473C38.725 27.9926 38.1177 28.1223 37.5 28.125H15V75Z" fill="white"/>
<path d="M60 68.75C55.5499 68.75 51.1998 67.6503 47.4997 65.5901C43.7996 63.5298 40.9157 60.6014 39.2127 57.1753C37.5097 53.7492 37.0642 49.9792 37.9323 46.3421C38.8005 42.7049 40.9434 39.364 44.0901 36.7418C47.2368 34.1195 51.2459 32.3338 55.6105 31.6103C59.975 30.8868 64.499 31.2581 68.6104 32.6773C72.7217 34.0964 76.2357 36.4996 78.7081 39.5831C81.1804 42.6665 82.5 46.2916 82.5 50C82.5 54.9728 80.1295 59.742 75.9099 63.2583C71.6903 66.7746 65.9674 68.75 60 68.75ZM60 37.5C57.0333 37.5 54.1332 38.2331 51.6665 39.6066C49.1997 40.9802 47.2771 42.9324 46.1418 45.2165C45.0065 47.5005 44.7095 50.0139 45.2882 52.4386C45.867 54.8634 47.2956 57.0907 49.3934 58.8388C51.4912 60.587 54.1639 61.7775 57.0737 62.2598C59.9834 62.7421 62.9994 62.4946 65.7403 61.5485C68.4811 60.6024 70.8238 59.0002 72.472 56.9446C74.1203 54.889 75 52.4723 75 50C75 46.6848 73.4197 43.5054 70.6066 41.1612C67.7936 38.817 63.9783 37.5 60 37.5Z" fill="white"/>
</svg>
